<svg width="32" height="32" viewBox="0 0 32 32" fill="none" xmlns="http://www.w3.org/2000/svg">
<g clip-path="url(#clip0_341_1077)">
<path d="M2.11301 32.0018C1.57022 32.0018 1.02743 31.7973 0.61857 31.3814C-0.20619 30.5567 -0.20619 29.2173 0.61857 28.3925L28.3926 0.61857C29.2173 -0.20619 30.5567 -0.20619 31.3814 0.61857C32.2062 1.44333 32.2062 2.78269 31.3814 3.60745L3.60745 31.3814C3.19154 31.7973 2.6558 32.0018 2.11301 32.0018Z" fill="#fff"/>
<path d="M29.887 32.0018C29.3442 32.0018 28.8014 31.7973 28.3926 31.3814L0.61857 3.60745C-0.20619 2.78269 -0.20619 1.44333 0.61857 0.61857C1.44333 -0.20619 2.78269 -0.20619 3.60745 0.61857L31.3814 28.3925C32.2062 29.2173 32.2062 30.5567 31.3814 31.3814C30.9726 31.7973 30.4298 32.0018 29.887 32.0018Z" fill="#fff"/>
</g>
<defs>
<clipPath id="clip0_341_1077">
<rect width="32" height="32" fill="white"/>
</clipPath>
</defs>
</svg>
