<svg width="34" height="34" viewBox="0 0 34 34" fill="none" xmlns="http://www.w3.org/2000/svg">
<circle cx="17" cy="17" r="17" fill="#F2F4F8"/>
<path fill-rule="evenodd" clip-rule="evenodd" d="M17.3889 15.5264L12.2524 10.3899C11.7372 9.87469 10.9017 9.87377 10.3876 10.3879C9.8735 10.902 9.87443 11.7375 10.3897 12.2527L15.5261 17.3892L10.401 22.5143C9.88692 23.0284 9.88785 23.8639 10.4031 24.3791C10.9183 24.8944 11.7538 24.8953 12.2679 24.3812L17.393 19.2561L22.5295 24.3926C23.0448 24.9078 23.8802 24.9087 24.3943 24.3946C24.9085 23.8805 24.9075 23.045 24.3923 22.5298L19.2558 17.3933L24.3809 12.2682C24.895 11.7541 24.8941 10.9186 24.3789 10.4034C23.8636 9.88812 23.0281 9.88719 22.514 10.4013L17.3889 15.5264Z" fill="#2E374D"/>
</svg>
